<?xml version="1.0" encoding="UTF-8" standalone="no"?><!DOCTYPE svg PUBLIC "-//W3C//DTD SVG 1.1//EN" "http://www.w3.org/Graphics/SVG/1.1/DTD/svg11.dtd"><svg xmlns="http://www.w3.org/2000/svg" xmlns:xlink="http://www.w3.org/1999/xlink" version="1.1" width="27" height="25" viewBox="-1.1030303030303328 -0.09696969696972513 26.006060606060608 24.593939393939394">
<desc>Created with SVGMaker Editor 3.1.0</desc>
<defs>
</defs>
<path transform="translate(0,0)" style="fill: rgb(255,255,255)" stroke-linecap="round" d="M0.603 4.0803C0.603 2.7106 1.7045 1.6091 3.0742 1.6091L9.0757 1.6091C10.2478 1.6091 11.1939 2.5552 11.1939 3.7273L11.1939 22.0848C11.1939 22.4802 10.8833 22.7909 10.4879 22.7909L3.0742 22.7909C1.7045 22.7909 0.603 21.6894 0.603 20.3197L0.603 4.0803Z"/>
<path transform="translate(0,0)" style="fill: rgb(255,255,255)" stroke-linecap="round" d="M12.6061 3.7273C12.6061 2.5552 13.5522 1.6091 14.7243 1.6091L20.7258 1.6091C22.0955 1.6091 23.197 2.7106 23.197 4.0803L23.197 20.3197C23.197 21.6894 22.0955 22.7909 20.7258 22.7909L13.3121 22.7909C12.9167 22.7909 12.6061 22.4802 12.6061 22.0848L12.6061 3.7273Z"/>
</svg>